<svg width="50" height="50" viewBox="0 0 50 50" fill="none" xmlns="http://www.w3.org/2000/svg">
<path d="M35.2042 14.597C35.2042 18.7915 31.7992 22.194 27.5962 22.194C23.3933 22.194 19.9883 18.7915 19.9883 14.597C19.9883 10.4025 23.3933 7 27.5962 7C31.7992 7 35.2042 10.4025 35.2042 14.597Z" stroke="#03C2EC" stroke-width="2"/>
<path d="M41.7461 36.0898C42.2593 37.3471 41.959 38.5215 41.1545 39.4292C40.3276 40.362 38.9643 41 37.45 41L17.0061 41C15.4918 41 14.1285 40.362 13.3017 39.4292C12.4971 38.5215 12.1968 37.3471 12.7101 36.0898C13.4909 34.1768 14.6506 32.4187 16.1417 30.9295C19.0817 27.9931 23.0696 26.3433 27.2281 26.3433C31.3865 26.3433 35.3744 27.9931 38.3145 30.9295C39.8056 32.4187 40.9652 34.1768 41.7461 36.0898Z" stroke="#03C2EC" stroke-width="2"/>
<path d="M12.532 21.164H13.532V20.164V13.6416H20.1399V20.164V21.164H21.1399H27.6719V27.761H21.1399H20.1399V28.761V35.2834H13.532V28.761V27.761H12.532H6V21.164H12.532Z" fill="white" stroke="#03C2EC" stroke-width="2"/>
<path d="M11.632 13.7742V19.0314C11.632 19.1598 11.5278 19.264 11.3993 19.264H6.13263C5.01004 19.264 4.1 20.174 4.1 21.2966V27.6284C4.1 28.751 5.01004 29.661 6.13263 29.661H11.3993C11.5278 29.661 11.632 29.7652 11.632 29.8936V35.1508C11.632 36.2733 12.542 37.1834 13.6646 37.1834H20.0073C21.1299 37.1834 22.0399 36.2734 22.0399 35.1508V29.8936C22.0399 29.7652 22.1441 29.661 22.2725 29.661H27.5393C28.6618 29.661 29.5719 28.751 29.5719 27.6284V21.2966C29.5719 20.174 28.6618 19.264 27.5393 19.264H22.2725C22.1441 19.264 22.0399 19.1598 22.0399 19.0314V13.7742C22.0399 12.6516 21.1299 11.7416 20.0073 11.7416H13.6646C12.542 11.7416 11.632 12.6516 11.632 13.7742Z" stroke="white" stroke-width="1.8"/>
</svg>
