<svg width="26" height="26" viewBox="0 0 26 26" fill="none" xmlns="http://www.w3.org/2000/svg">
<path d="M18.4168 22.75V20.5833C18.4168 19.4341 17.9603 18.3319 17.1476 17.5192C16.335 16.7065 15.2328 16.25 14.0835 16.25H5.41683C4.26756 16.25 3.16536 16.7065 2.3527 17.5192C1.54004 18.3319 1.0835 19.4341 1.0835 20.5833V22.75" stroke="#03C2EC" stroke-width="1.65816" stroke-linecap="round" stroke-linejoin="round"/>
<path d="M9.74984 11.9167C12.1431 11.9167 14.0832 9.97657 14.0832 7.58333C14.0832 5.1901 12.1431 3.25 9.74984 3.25C7.3566 3.25 5.4165 5.1901 5.4165 7.58333C5.4165 9.97657 7.3566 11.9167 9.74984 11.9167Z" stroke="#03C2EC" stroke-width="1.65816" stroke-linecap="round" stroke-linejoin="round"/>
<path d="M24.9165 22.75V20.5834C24.9158 19.6232 24.5962 18.6905 24.008 17.9317C23.4197 17.1729 22.5961 16.6309 21.6665 16.3909" stroke="#03C2EC" stroke-width="1.65816" stroke-linecap="round" stroke-linejoin="round"/>
<path d="M17.3335 3.39087C18.2656 3.62953 19.0918 4.17163 19.6818 4.93171C20.2718 5.69178 20.592 6.6266 20.592 7.58879C20.592 8.55097 20.2718 9.48579 19.6818 10.2459C19.0918 11.0059 18.2656 11.548 17.3335 11.7867" stroke="#03C2EC" stroke-width="1.65816" stroke-linecap="round" stroke-linejoin="round"/>
</svg>
