<svg width="50" height="50" viewBox="0 0 50 50" fill="none" xmlns="http://www.w3.org/2000/svg">
<circle cx="24" cy="24" r="17" stroke="#03C2EC" stroke-width="2"/>
<circle cx="30.5" cy="20.5" r="2.5" fill="#03C2EC"/>
<circle cx="17.5" cy="20.5" r="2.5" fill="#03C2EC"/>
<path d="M32 32.0247C31.0516 30.7701 29.8375 29.7554 28.4504 29.0578C27.0633 28.3603 25.5398 27.9985 23.9963 28C22.4528 28.0015 20.93 28.3663 19.5442 29.0665C18.1583 29.7667 16.9461 30.7838 16 32.0402L17.2009 33C18.0051 31.932 19.0355 31.0675 20.2134 30.4723C21.3914 29.8771 22.6858 29.5671 23.9977 29.5658C25.3097 29.5645 26.6047 29.8721 27.7837 30.465C28.9628 31.0579 29.9947 31.9204 30.8009 32.9868L32 32.0247Z" fill="#03C2EC"/>
</svg>
