<svg width="50" height="50" viewBox="0 0 50 50" fill="none" xmlns="http://www.w3.org/2000/svg">
<path d="M39.1701 38.6984L28.546 26.3037C28.2353 25.9412 28.0645 25.4795 28.0645 25.0021V11.2258C28.0645 10.2638 28.8444 9.48387 29.8064 9.48387C30.7685 9.48387 31.5484 8.70398 31.5484 7.74194C31.5484 6.77989 30.7685 6 29.8064 6H18.1935C17.2315 6 16.4516 6.77989 16.4516 7.74194C16.4516 8.70398 17.2315 9.48387 18.1935 9.48387C19.1556 9.48387 19.9355 10.2638 19.9355 11.2258V25.0021C19.9355 25.4795 19.7647 25.9412 19.454 26.3037L8.82993 38.6984C7.71792 39.9958 8.63974 42 10.3484 42H37.6516C39.3603 42 40.2821 39.9958 39.1701 38.6984Z" stroke="#03C2EC" stroke-width="2"/>
<path d="M33.0611 39.1375H14.9391C14.172 39.1375 13.7549 38.241 14.249 37.6543L21.1107 29.5061C21.2821 29.3025 21.5346 29.1851 21.8007 29.1851H26.1994C26.4655 29.1851 26.7181 29.3025 26.8895 29.5061L33.7511 37.6543C34.2452 38.241 33.8281 39.1375 33.0611 39.1375Z" fill="#03C2EC"/>
</svg>
