<svg width="50" height="50" viewBox="0 0 50 50" fill="none" xmlns="http://www.w3.org/2000/svg">
<path d="M23.2036 7.33753C24.0047 6.88749 24.9953 6.88749 25.7964 7.33753L38.7241 14.5996C39.5224 15.0481 40 15.8669 40 16.7379V31.2621C40 32.1331 39.5224 32.9519 38.7241 33.4004L25.7964 40.6625C24.9953 41.1125 24.0047 41.1125 23.2036 40.6625L10.2759 33.4004C9.47761 32.9519 9 32.1331 9 31.2621V16.7379C9 15.8669 9.47761 15.0481 10.2759 14.5996L23.2036 7.33753Z" stroke="#03C2EC" stroke-width="2"/>
<path d="M38.7895 15.8898L32.7562 19.3656M24.5 24L9.61523 15.8898M24.5 24V40.7998M24.5 24L32.7562 19.3656M17.3553 10.676L32.7562 19.3656" stroke="#03C2EC" stroke-width="2" stroke-linecap="round"/>
<path d="M29.2627 37.9033V32.088C29.2627 31.7417 29.4418 31.42 29.7363 31.2377L34.2856 28.4209C34.9518 28.0085 35.812 28.4876 35.812 29.2712V34.4275" stroke="#03C2EC" stroke-width="2"/>
</svg>
