<svg width="28" height="36" viewBox="0 0 28 36" fill="none" xmlns="http://www.w3.org/2000/svg">
<path d="M25 35H3C1.89543 35 1 34.1046 1 33V3C1 1.89543 1.89543 1 3 1H16.7574C17.2878 1 17.7965 1.21071 18.1716 1.58579L26.4142 9.82843C26.7893 10.2035 27 10.7122 27 11.2426V33C27 34.1046 26.1046 35 25 35Z" stroke="#03C2EC" stroke-width="2"/>
<path d="M27 11H19C17.8954 11 17 10.1046 17 9V1" stroke="#03C2EC" stroke-width="1.8" stroke-linecap="round"/>
<path d="M5 7H12V11H5L5 7ZM23 16V20H5L5 16H23ZM23 25V29H5L5 25H23Z" stroke="#03C2EC" stroke-width="2"/>
</svg>
