<svg width="658" height="430" viewBox="0 0 658 430" fill="none" xmlns="http://www.w3.org/2000/svg">
<g clip-path="url(#clip0_867_1733)">
<circle cx="469" cy="-39" r="469" fill="#1D214E"/>
<rect opacity="0.7" x="-1.03711" y="-30.844" width="202.818" height="835.764" rx="101.409" transform="rotate(-45 -1.03711 -30.844)" fill="url(#paint0_linear_867_1733)"/>
<rect opacity="0.7" x="275.699" y="199.996" width="47.3432" height="154.369" rx="23.6716" transform="rotate(-45 275.699 199.996)" fill="url(#paint1_linear_867_1733)"/>
<rect opacity="0.7" x="433.412" y="310.728" width="22.1849" height="72.3372" rx="11.0925" transform="rotate(-45 433.412 310.728)" fill="url(#paint2_linear_867_1733)"/>
<rect opacity="0.7" x="55.0469" y="104.527" width="32.5243" height="106.05" rx="16.2622" transform="rotate(-45 55.0469 104.527)" fill="url(#paint3_linear_867_1733)"/>
<g opacity="0.6" filter="url(#filter0_b_867_1733)">
<circle cx="470.554" cy="116.988" r="104.683" fill="url(#paint4_linear_867_1733)"/>
</g>
<rect opacity="0.7" x="524" y="308.088" width="45.6776" height="148.939" rx="22.8388" transform="rotate(-45 524 308.088)" fill="url(#paint5_linear_867_1733)"/>
</g>
<defs>
<filter id="filter0_b_867_1733" x="-23.8394" y="-377.406" width="988.786" height="988.787" filterUnits="userSpaceOnUse" color-interpolation-filters="sRGB">
<feFlood flood-opacity="0" result="BackgroundImageFix"/>
<feGaussianBlur in="BackgroundImage" stdDeviation="194.855"/>
<feComposite in2="SourceAlpha" operator="in" result="effect1_backgroundBlur_867_1733"/>
<feBlend mode="normal" in="SourceGraphic" in2="effect1_backgroundBlur_867_1733" result="shape"/>
</filter>
<linearGradient id="paint0_linear_867_1733" x1="-348.993" y1="397.061" x2="305.993" y2="454.892" gradientUnits="userSpaceOnUse">
<stop stop-color="#03C2EC"/>
<stop offset="1" stop-color="#03C2EC" stop-opacity="0"/>
</linearGradient>
<linearGradient id="paint1_linear_867_1733" x1="194.477" y1="279.032" x2="346.665" y2="296.014" gradientUnits="userSpaceOnUse">
<stop stop-color="#03C2EC"/>
<stop offset="1" stop-color="#03C2EC" stop-opacity="0"/>
</linearGradient>
<linearGradient id="paint2_linear_867_1733" x1="395.352" y1="347.764" x2="466.667" y2="355.721" gradientUnits="userSpaceOnUse">
<stop stop-color="#03C2EC"/>
<stop offset="1" stop-color="#03C2EC" stop-opacity="0"/>
</linearGradient>
<linearGradient id="paint3_linear_867_1733" x1="-0.751917" y1="158.824" x2="103.8" y2="170.49" gradientUnits="userSpaceOnUse">
<stop stop-color="#03C2EC"/>
<stop offset="1" stop-color="#03C2EC" stop-opacity="0"/>
</linearGradient>
<linearGradient id="paint4_linear_867_1733" x1="68.5" y1="519" x2="664.719" y2="234.984" gradientUnits="userSpaceOnUse">
<stop stop-color="#03C2EC"/>
<stop offset="1" stop-color="#03C2EC" stop-opacity="0"/>
</linearGradient>
<linearGradient id="paint5_linear_867_1733" x1="445.635" y1="384.343" x2="592.469" y2="400.728" gradientUnits="userSpaceOnUse">
<stop stop-color="#03C2EC"/>
<stop offset="1" stop-color="#03C2EC" stop-opacity="0"/>
</linearGradient>
<clipPath id="clip0_867_1733">
<rect y="-508" width="938" height="938" rx="469" fill="white"/>
</clipPath>
</defs>
</svg>
