<svg width="50" height="50" viewBox="0 0 50 50" fill="none" xmlns="http://www.w3.org/2000/svg">
<path d="M20 19C20 20.6569 18.6569 22 17 22C15.3431 22 14 20.6569 14 19C14 17.3431 15.3431 16 17 16C18.6569 16 20 17.3431 20 19ZM34 19C34 20.6569 32.6569 22 31 22C29.3431 22 28 20.6569 28 19C28 17.3431 29.3431 16 31 16C32.6569 16 34 17.3431 34 19Z" stroke="#03C2EC" stroke-width="2"/>
<path d="M18 39V34C18 32.8954 18.8954 32 20 32H28C29.1046 32 30 32.8954 30 34V39M13 39H35C37.7614 39 40 36.7614 40 34V14C40 11.2386 37.7614 9 35 9H13C10.2386 9 8 11.2386 8 14V34C8 36.7614 10.2386 39 13 39Z" stroke="#03C2EC" stroke-width="2" stroke-linecap="round"/>
<path d="M39 17H40C41.6569 17 43 18.3431 43 20V28C43 29.6569 41.6569 31 40 31H39V17Z" fill="#03C2EC"/>
<path d="M9 17H8C6.34315 17 5 18.3431 5 20V28C5 29.6569 6.34315 31 8 31H9V17Z" fill="#03C2EC"/>
</svg>
