<svg width="40" height="40" viewBox="0 0 40 40" fill="none" xmlns="http://www.w3.org/2000/svg">
<path d="M39.2587 19.8532V27.739C39.2594 28.0906 39.1664 28.4365 38.9884 28.7441C38.8105 29.0517 38.5535 29.3108 38.2417 29.4969L21.1358 39.6881C20.7921 39.892 20.3957 40.0001 19.9913 40.0001C19.5869 40.0001 19.1905 39.892 18.8468 39.6881L1.76051 29.4907C1.44834 29.3047 1.19085 29.0457 1.01234 28.7381C0.833832 28.4305 0.740185 28.0845 0.740234 27.7327V19.8532C0.740182 19.4838 0.843431 19.1211 1.03928 18.8028C1.23512 18.4844 1.51643 18.2219 1.85403 18.0426C2.19164 17.8633 2.57325 17.7736 2.9593 17.7828C3.34535 17.7921 3.72179 17.9 4.04957 18.0953L18.8468 26.9226C19.1905 27.1265 19.5869 27.2345 19.9913 27.2345C20.3957 27.2345 20.7921 27.1265 21.1358 26.9226L35.9363 18.0953C36.2641 17.8956 36.6421 17.7842 37.0305 17.7727C37.4189 17.7612 37.8034 17.8502 38.1435 18.0301C38.4835 18.21 38.7666 18.4743 38.9628 18.7951C39.1591 19.116 39.2613 19.4815 39.2587 19.8532Z" fill="#1D214E"/>
<path d="M18.8444 22.1147L3.65483 13.0184C3.34545 12.8318 3.09053 12.5733 2.91386 12.267C2.73719 11.9607 2.64453 11.6165 2.64453 11.2667C2.64453 10.9168 2.73719 10.5727 2.91386 10.2664C3.09053 9.96005 3.34545 9.70154 3.65483 9.51497L18.8379 0.321674C19.1834 0.11158 19.5844 0 19.9939 0C20.4033 0 20.8043 0.11158 21.1498 0.321674L36.3427 9.51497C36.6521 9.70154 36.907 9.96005 37.0837 10.2664C37.2603 10.5727 37.353 10.9168 37.353 11.2667C37.353 11.6165 37.2603 11.9607 37.0837 12.267C36.907 12.5733 36.6521 12.8318 36.3427 13.0184L21.14 22.1147C20.7957 22.3202 20.3981 22.4292 19.9922 22.4292C19.5864 22.4292 19.1887 22.3202 18.8444 22.1147Z" fill="#1D214E"/>
</svg>
