<svg width="50" height="50" viewBox="0 0 50 50" fill="none" xmlns="http://www.w3.org/2000/svg">
<path d="M28.6361 37.2322C27.4495 38.4189 26.0432 39.3623 24.4977 40.0087C22.9522 40.6551 21.2982 40.9917 19.6301 40.9998C17.9621 41.008 16.3128 40.6875 14.7761 40.0573C13.2395 39.427 11.8454 38.4992 10.6731 37.3269C9.50081 36.1546 8.57299 34.7605 7.94274 33.2239C7.31247 31.6872 6.992 30.0379 7.00015 28.3699C7.0083 26.7018 7.34492 25.0478 7.99132 23.5023C8.63772 21.9568 9.58112 20.5505 10.7678 19.3638L22.0103 8.12132C22.4008 7.7308 23.034 7.7308 23.4245 8.12132L26.8629 11.5597C27.2534 11.9503 27.2534 12.5834 26.8629 12.974L15.6204 24.2165C15.081 24.7559 14.6519 25.3954 14.3578 26.0986C14.0636 26.8019 13.9101 27.5555 13.9063 28.3166C13.9026 29.0777 14.0489 29.8313 14.3372 30.5344C14.6256 31.2374 15.0503 31.8758 15.5873 32.4127C16.1242 32.9497 16.7626 33.3744 17.4656 33.6628C18.1687 33.9511 18.9223 34.0974 19.6834 34.0937C20.4445 34.0899 21.1981 33.9364 21.9014 33.6422L21.5155 32.7197L21.9014 33.6422C22.6046 33.3481 23.2441 32.919 23.7835 32.3796L35.026 21.1371C35.4166 20.7466 36.0497 20.7466 36.4403 21.1371L38.1595 22.8563L39.8787 24.5755C40.2692 24.966 40.2692 25.5992 39.8787 25.9897L28.6361 37.2322Z" stroke="#03C2EC" stroke-width="2"/>
<path d="M17 12L22.7 17.4M30.9333 25.2L36 30" stroke="#03C2EC" stroke-width="2"/>
</svg>
