<svg width="360" height="244" viewBox="0 0 360 244" fill="none" xmlns="http://www.w3.org/2000/svg">
<g clip-path="url(#clip0_1272_2423)">
<circle cx="180" cy="52" r="192" fill="#1D214E"/>
<rect opacity="0.7" x="-12.4238" y="55.3403" width="83.0301" height="342.146" rx="41.5151" transform="rotate(-45 -12.4238 55.3403)" fill="url(#paint0_linear_1272_2423)"/>
<rect opacity="0.7" x="100.865" y="149.84" width="19.3814" height="63.196" rx="9.69072" transform="rotate(-45 100.865 149.84)" fill="url(#paint1_linear_1272_2423)"/>
<rect opacity="0.7" x="165.43" y="195.17" width="9.08211" height="29.6135" rx="4.54105" transform="rotate(-45 165.43 195.17)" fill="url(#paint2_linear_1272_2423)"/>
<rect opacity="0.7" x="10.5347" y="110.757" width="13.3149" height="43.415" rx="6.65743" transform="rotate(-45 10.5347 110.757)" fill="url(#paint3_linear_1272_2423)"/>
<g opacity="0.6" filter="url(#filter0_b_1272_2423)">
<circle cx="180.635" cy="115.859" r="42.8553" fill="url(#paint4_linear_1272_2423)"/>
</g>
<rect opacity="0.7" x="202.519" y="194.09" width="18.6996" height="60.9727" rx="9.34979" transform="rotate(-45 202.519 194.09)" fill="url(#paint5_linear_1272_2423)"/>
</g>
<defs>
<filter id="filter0_b_1272_2423" x="-21.7605" y="-86.5361" width="404.791" height="404.791" filterUnits="userSpaceOnUse" color-interpolation-filters="sRGB">
<feFlood flood-opacity="0" result="BackgroundImageFix"/>
<feGaussianBlur in="BackgroundImage" stdDeviation="79.7701"/>
<feComposite in2="SourceAlpha" operator="in" result="effect1_backgroundBlur_1272_2423"/>
<feBlend mode="normal" in="SourceGraphic" in2="effect1_backgroundBlur_1272_2423" result="shape"/>
</filter>
<linearGradient id="paint0_linear_1272_2423" x1="-154.871" y1="230.517" x2="113.268" y2="254.192" gradientUnits="userSpaceOnUse">
<stop stop-color="#03C2EC"/>
<stop offset="1" stop-color="#03C2EC" stop-opacity="0"/>
</linearGradient>
<linearGradient id="paint1_linear_1272_2423" x1="67.6139" y1="182.196" x2="129.917" y2="189.148" gradientUnits="userSpaceOnUse">
<stop stop-color="#03C2EC"/>
<stop offset="1" stop-color="#03C2EC" stop-opacity="0"/>
</linearGradient>
<linearGradient id="paint2_linear_1272_2423" x1="149.849" y1="210.332" x2="179.044" y2="213.59" gradientUnits="userSpaceOnUse">
<stop stop-color="#03C2EC"/>
<stop offset="1" stop-color="#03C2EC" stop-opacity="0"/>
</linearGradient>
<linearGradient id="paint3_linear_1272_2423" x1="-12.3083" y1="132.985" x2="30.4932" y2="137.761" gradientUnits="userSpaceOnUse">
<stop stop-color="#03C2EC"/>
<stop offset="1" stop-color="#03C2EC" stop-opacity="0"/>
</linearGradient>
<linearGradient id="paint4_linear_1272_2423" x1="16.0415" y1="280.436" x2="260.123" y2="164.165" gradientUnits="userSpaceOnUse">
<stop stop-color="#03C2EC"/>
<stop offset="1" stop-color="#03C2EC" stop-opacity="0"/>
</linearGradient>
<linearGradient id="paint5_linear_1272_2423" x1="170.437" y1="225.308" x2="230.549" y2="232.015" gradientUnits="userSpaceOnUse">
<stop stop-color="#03C2EC"/>
<stop offset="1" stop-color="#03C2EC" stop-opacity="0"/>
</linearGradient>
<clipPath id="clip0_1272_2423">
<rect x="-12" y="-140" width="384" height="384" rx="192" fill="white"/>
</clipPath>
</defs>
</svg>
