<svg width="50" height="50" viewBox="0 0 50 50" fill="none" xmlns="http://www.w3.org/2000/svg">
<path d="M48.9291 32.4503C48.964 32.9231 48.5736 33.3749 48 33.3749H42C41.4742 33.3749 40.9528 32.9294 40.8697 32.2572C40.4228 28.6406 38.8392 25.2496 36.328 22.6338C33.3308 19.5118 29.2569 17.7499 25 17.7499C20.7431 17.7499 16.6692 19.5118 13.672 22.6338C11.1608 25.2496 9.57717 28.6406 9.13027 32.2572C9.04721 32.9294 8.52579 33.3749 8 33.3749L2 33.3749C1.42637 33.3749 1.03602 32.9231 1.07094 32.4503C1.51027 26.5009 3.97479 20.8917 8.04372 16.6532C12.548 11.9612 18.6483 9.33325 25 9.33325C31.3517 9.33325 37.452 11.9612 41.9563 16.6532C46.0252 20.8917 48.4897 26.5009 48.9291 32.4503Z" stroke="#03C2EC" stroke-width="2"/>
<path d="M24.3066 29.5468C24.621 28.9844 25.3784 28.9844 25.6927 29.5468L31.1735 39.3528C31.5239 39.9798 31.054 40.6667 30.4805 40.6667H19.5189C18.9453 40.6667 18.4754 39.9798 18.8259 39.3528L24.3066 29.5468Z" stroke="#03C2EC" stroke-width="2"/>
</svg>
