<svg width="50" height="50" viewBox="0 0 50 50" fill="none" xmlns="http://www.w3.org/2000/svg">
<path d="M28.0837 13.1945C28.0837 12.2127 28.8796 11.4167 29.8614 11.4167H36.8059C37.7877 11.4167 38.5837 12.2127 38.5837 13.1945V36.8056C38.5837 37.7875 37.7877 38.5834 36.8059 38.5834H29.8614C28.8796 38.5834 28.0837 37.7875 28.0837 36.8056V13.1945ZM11.417 22.9167C11.417 21.9349 12.2129 21.139 13.1948 21.139H20.1392C21.1211 21.139 21.917 21.9349 21.917 22.9167V36.8056C21.917 37.7875 21.1211 38.5834 20.1392 38.5834H13.1948C12.2129 38.5834 11.417 37.7875 11.417 36.8056V22.9167Z" stroke="#03C2EC" stroke-width="2"/>
<path d="M32.292 43.7501H41.7503C42.8549 43.7501 43.7503 42.8547 43.7503 41.7501V32.2917" stroke="#03C2EC" stroke-width="2" stroke-linecap="round"/>
<path d="M17.708 6.24992L8.24967 6.24992C7.1451 6.24992 6.24968 7.14535 6.24968 8.24992L6.24967 17.7083" stroke="#03C2EC" stroke-width="2" stroke-linecap="round"/>
</svg>
